/* XPM */
static char * candy_sprite_xpm[] = {
"64 64 4 1",
" 	c None",
".	c #B1E39B",
"+	c #FFFFFF",
"@	c #73CD4B",
"                                                                ",
"                                 .........                      ",
"                               ++@@@@@@@@@.+                    ",
"                              ++++@@@@@@@@+++                   ",
"                             +++++@@@@@@@@++++                  ",
"                            .++++++@@@@@@++++++                 ",
"                            @@+++++@@@@@@++++++                 ",
"                           .@@@+++++@@@@+++++++                 ",
"                           @@@@@++++   @++++++@.                ",
"                           @@@@@@++     ++++@@@@                ",
"                           @@@@@@@       +@@@@@@                ",
"                           @@@@@@@       @@@@@@@                ",
"                           +@@@@@@       @@@@@@@                ",
"                           ++@@@@@       @@@@@@@                ",
"                           +++@@@@                              ",
"                           ++++@@@                              ",
"                           +++++@@                              ",
"                           ++++++@                              ",
"                           @++++++                              ",
"                           @@+++++                              ",
"                           @@@++++                              ",
"                           @@@@+++                              ",
"                           @@@@@++                              ",
"                           +@@@@@+                              ",
"                           ++@@@@@                              ",
"                           +++@@@@                              ",
"                           ++++@@@                              ",
"                           +++++@@                              ",
"                           @+++++@                              ",
"                           @@+++++                              ",
"                           @@@++++                              ",
"                           @@@@+++                              ",
"                           @@@@@++                              ",
"                           @@@@@@+                              ",
"                           +@@@@@@                              ",
"                           ++@@@@@                              ",
"                           +++@@@@                              ",
"                           ++++@@@                              ",
"                           +++++@@                              ",
"                           @+++++@                              ",
"                           @@+++++                              ",
"                           @@@++++                              ",
"                           @@@@+++                              ",
"                           @@@@@++                              ",
"                           +@@@@@+                              ",
"                           ++@@@@@                              ",
"                           +++@@@@                              ",
"                           ++++@@@                              ",
"                           +++++@@                              ",
"                           @+++++@                              ",
"                           @@+++++                              ",
"                           @@@++++                              ",
"                           @@@@+++                              ",
"                           @@@@@++                              ",
"                           @@@@@@+                              ",
"                           +@@@@@@                              ",
"                           ++@@@@@                              ",
"                           +++@@@@                              ",
"                           ++++@@@                              ",
"                           +++++@@                              ",
"                           @+++++@                              ",
"                           @@+++++                              ",
"                           @@@++++                              ",
"                           @@@@+++                              "};
