/* XPM */
static char * candy_wall_xpm[] = {
"64 64 29 1",
" 	c #FFE5FF",
".	c #FEE4FE",
"+	c #FFCCFF",
"@	c #E86A17",
"#	c #FFFFFF",
"$	c #FFCCFE",
"%	c #FECCFD",
"&	c #1EA7E1",
"*	c #FECDFE",
"=	c #ECC0EC",
"-	c #FECDFB",
";	c #E4DCBF",
">	c #E7DFC2",
",	c #E6DEC1",
"'	c #E6DEC2",
")	c #E5DDC0",
"!	c #E0D9BD",
"~	c #E2DABE",
"{	c #E1DABE",
"]	c #E2DBBE",
"^	c #E5DDC1",
"/	c #E6DFC2",
"(	c #E4DCC0",
"_	c #E3DCBF",
":	c #E3DBBF",
"<	c #E4DDC0",
"[	c #E1DABD",
"}	c #E1D9BD",
"|	c #E5DEC1",
"                                                               .",
"+++@+++++++@+++++#++++++@+++++++@+++++#++++++@+++++++@+++++#+++$",
"++@+++++++++@+++#++++++@+++++++++@+++#++++++@+++++++++@+++#++++%",
"+++++++&++++++++++++++++++++&++++++++++++++++++++&+++++++++++++*",
"++++++++&++++++++++++++++++++&++++++++++++++++++++&++++++++++++*",
"+++++++++++++====+++++++++++++++++====+++++++++++++++++====++++-",
"++++++++++===;>>>===+++++++++++===,>>,===+++++++++++===,>>,===++",
"==+++++===>>,>>>>>>,===+++++===>>,>>>>>>,===+++++===>>'>>>>>>,==",
">>=====,>>>>>>>>>>>>>>,=====,>>>>>>>>>>>>,,)=====,>>>>>>>>>>>>>>",
">>>>>>>>>>>>>>>>>>>>>>>>>>>>>>>>>>>>>>>>>>>>>>>>>>>>>>>>>>>>>>>>",
">>>>>>>>>>>>>>>>>>>>>>>>>>>>>>>>>>>>>>>>>>>>>>>>>>>>>>>>>>>>>>>>",
">>>>>>>>>>>>>>>>>>>>>>>>>>>>>>>>>>>>>>>>>>>>>>>>>>>>>>>>>>>>>>>>",
">>>!!>>>>>!!>>>>>!!>>>>>!!>>>>>!!>>>>>!!>>>>>!!>>>>>!!>>>>>!!>>>",
">>!!!!>>>!!!!>>>!!!!>>>!!!!>>>!!!!>>>!!!!>>>!!!!>>>!!!!>>>!!!!>>",
">!!!!!!>!!!!!!>!!!!!!>!!!!!!>!!!!!!>!!!!!!>!!!!!!>!!!!!!>!!!!!!>",
"!!!!!!!!!!!!!!!!!!!!!!!!!!!!!!!~~!!!!!!!!!!!!!!!!!!!!!!!!!!!!!!!",
"!!!!!!!!!!!!!!!!!!!!!!!!!!!!!!{{{{!!!!!!!!!!!!!!!!!!!!!!!!!!!!!!",
"!{!!!!!!!!!!!!!{!!!!{!!!!!!!!!!!{{!!!!!!!!!{!!!!{!!!!!!!!{!!!!!!",
"!{!!!!!!!!!!!!!!!!!!!!!!!!{!!!!!{{!!!!!!!!!!!!!!!!!!!!!{{!!!!!!!",
"!{!!!!!!!!!!!!!!!!!!!!!!!!{!!!!!!{!!!!!!{!!!!!!]!!!!!!!!!!!!!!!!",
"!{!!!!!!!!!!!!!!!!!!!!!!!!!!!!!!!!!!!!!!!!!!!!!!!!!!!!!!!!!!!!!!",
"{!!!!!!!!!!!!!!!!!!!!!!!!!!!!!!!!!!!!!!!!!!!!!!!!{!!!!!!!!!!!!!!",
"!!!>>!!!!!>>!!!!!>>!!!!!>>!!!!!>>!!!!!>>!!!!!>>!!!!!>>!!!!!>>!!!",
"!!>>>>!!!>>>>!!!>>>>!!!>>>>!!!>>>>!!!>>>>!!!>>>>!!!>>>>!!!>>>>!!",
"!>>>>>>!>>>>>>!>>>>>>!>>>>>>!>>>>>>!>>>>>>!>>>>>>!>>>>>>!>>>>>>!",
">>>>>>>>>>>>>>>>>>>>>>>>>>>>>>>>>>>>>>>>>>>>>>>>>>>>>>>>>>>>>>>>",
">>>>>>>>>>>>>>>>>>>>>>>>''>>>>>,,>>>>>,>>>>>>,,>>>>>,,>>>>>',>>>",
">>>>>>>>>>>>>>>>>>>>>>>>>>>>>>,>>,>>>,>>>>>>>,>>>>>,>>>>>>,>>>>>",
">>>>>>>>>>>>>>>>>>>>>>>>>>>>>>^,>/>>>>>>>>>>>>>>'>>>>>>>>>>>>''>",
",>>>>>>>>>>>>>>>>>>>>>>>>>>>>>>>>>>>>>>>>>>>>>>,,,,,>>>>>>>>>,>>",
"(^>>>>>>>>>>>>>>>>>>>>>>>>>>>>>>>>>>>>>>>>>>>>>>,,,>>>>>>>>>>>,>",
"(>>>>>>>>>>>>>,>>>>>>>>>>>>>>>>>>>>,>>>>>>>>>>>>>(>>>>>>>>>>>>>>",
">>>>>>>>>>>>>>>>>>>>>>>>>>>>>>>>>>>>>>>>>>>>>>>>>>>>>>>>>>>>>>>>",
">>>((>>>>>_:>>>>>!!>>>>>!!>>>>>!!>>>>>!!>>>>>!!>>>>>!!>>>>>!!>>>",
">>!!!!>>>!!!!>>>!!!!>>>!!!!>>>!!!!>>>!!!!>>>!!!!>>>!!!!>>>!!!!>>",
">!!!!!!>!!!!!!>!!!!!!>!!!!!!<!!!!!!>!!!!!!>!!!!!!>!!!!!!>!!!!!!>",
"!!!!!!!!!!!!!!!!!{{!!!!!{{!!!!!!!!!!!!!!!!!!!!!!!!!!!!!!!!!!!!!!",
"!!!!!!!!!!!!!!!!{{{{!!![[{{!!!!!!!!!!!!!!!!!!!!!!!!!!!!!!!!!!!!!",
"!!!!!!!!!!!!!!!!!!}[}!!!![{{!!!!!!{!!!!!!{!!!!!!!!!!!!![!{!!!!!!",
"{[!!!!!!!!!!!!!!!!!!!!!!![{{!!!!![{!!!!!!!!!!!!!!!!!!!!!!!{!!!!!",
"!!!!!!!!!!!!!!!!!!!!![[[!!!!!!!!!{{!!!!!!!!!!!!!!!!!!!!!!!!!!!!!",
"!!!!!!!!!!!!!!!!!!!!!{{!!!!!!!!!!!{!!!!!!!!!!!!!!!!!!!!!!!!!!!{!",
"!!!!!!!!!!!!!!{!!!!!!{!!!!!!!!!!!!!!!!!!!!!!!!!!!{!!!!!!!!!!!!!!",
"!!!>>!!!!!>>!!!!!<<!!!!!>>!!!!!>>!!!!!>>!!!!!>>!!!!!>>!!!!!>>!!!",
"!!>>>>!!!>>>>!!!>>>>!!!>>>>!!!>>>>!!!>>>>!!!>>>>!!!>>>>!!!>>>>!!",
"!>>>>>>!>>>>>>!>>>>>>!>>>>>>!>>>>>>!>>>>>>!>>>>>>!>>>>>>!>>>>>>!",
">>>>>>>>>>>>>>>>>>>>>>>>>>>>>>>>>>>>>>>>>>>>>>>>>>>>>>>>>>>>>>>>",
">>>',>>>>>//>>>>>''>>>>>>>>>>>>,,>>>>>',>>>>>>>>>>>>,,>>>>>,,>>>",
">>>>>>>>>>>>>>>>>>>>>>>>>>>>>>>>>>>>>>>>>>>>>>>>>>>',,,>>>,,,,>>",
">>>>>>'>>>>>>>>>>>>>>>>>>>>>>>>>>>>>>>>>>>>>>>>>>>>>,,,,>,,,,,,>",
">>>>>>>>>>>>>>>>'>>>>>>>>>>>>>>>>>>>>>>>>>>>>>>>>>>>>>,,,,,>>,,,",
">>>>>>'>>>>>>>>>>>>>>>>>>>>,,>>>>>>>>>>>>>>>>>>>>>>>>>>,,,>>>>,,",
">>>>>>>>>>>>>>,>>>>>>>>>>>>>,>>>>>>,>>>>>>,>>>>>>|>>>>>>,>>>>>>,",
">>>>>>>>>>>>>>>>>>>>>>>>>>>>>>>>>>>>>>>>>>>>>>>>>>>>>>>>>>>>>>>>",
">>>!!>>>>>!!>>>>>!!>>>>>!:>>>>>!!>>>>>!!>>>>>!!>>>>>!!>>>>>!!>>>",
">>!!!!>>>!!!!>>>!!!!>>>!!!!>>>!!!!>>>!!!!>>>!!!!>>>!!!!>>>!!!!>>",
">!!!!!!>!!!!!!)!!!!!!>!!!!!!>!!!!!!>!!!!!!>!!!!!!_!!!!!!/!!!!!!>",
"!!!{{!!!!!{{!!!!!!!!!!!!!!!!!!!!!!!!!![[!!!!!!!!!!!!!!!!!!![!!!!",
"!!!!!!!!![!!!!!!!!!!!!!!!!!!!!!!!!!!!!!!!!!!!!!!!!!!!!!!!!!!!!!!",
"!!!!!!!![[!!!!!!!!!!!!!!!!!!!!!!!!!!!!!!!{!{!!!!!!!!!!!!!!!!!!!!",
"!!!!!!!!!!!!!!!!{!!!!!!!!!!!!!!!!!!!!!!!!!!!!!!!!!!!!!!!!!!!!!!!",
"!!!!!!!!!!!!!!!!!!!!!!!!!!!!!!!!!!!!!!!!!!!!!!!{{{!!!![!!!!!!!!{",
"!!!!!!!!!!!!!!!!!!!!!!!!!!!!!!!!!!!!!!!!!!!!!!!!{{{!!!!!!!!!!!{{",
"{!!!!!!!!!!!!!{!!!!!!!!!!!!!!!!!!!!!!!!!!!!!!!!!!{!!!!!!{!!!!!!{"};
