/* XPM */
static char * ghost_xpm[] = {
"21 21 4 1",
" 	c None",
".	c #000000",
"+	c #9F9F9F",
"@	c #F5F5F5",
"      @@@@@@@@@      ",
"    @@@@@@@@@@@@@    ",
"   @@@@@@@@@@@@@@@   ",
"   @@@@@@@@@@@@@@@   ",
"  @@@@@@@@@@@@@@@@@  ",
"  @@@@@@@@@@@@@@@@@  ",
"  @@@++@@@@@++@@@@@  ",
"  @@@++@@@@@++@@@@@  ",
"  @@@@@@@@@@@@@@@@@  ",
"  @@@@@+++++@@@@@@@  ",
"  @@@@+++++++@@@@@@  ",
"  @@@@+++++++@@@@@@  ",
"  @@@@+++++++@@@@@@  ",
"  @@@@@@@@@@@@@@@@@  ",
"  @@@@@@@@@@@@@@@@@  ",
"  @@@@@@@@@@@@@@@@@  ",
"  @@@@@@@@@@@@@@@@@  ",
"  @@@@@@@@@@@@@@@@@  ",
"  @@@@@@@@@@@@@@@@@  ",
"   @@@@ @@@@@ @@@@   ",
"    @@   @@@   @@    "};
