/* XPM */
static char * tile_xpm[] = {
"64 64 18 1",
" 	c #93DB24",
".	c #80BE1F",
"+	c #BB8044",
"@	c #C99869",
"#	c #C58F5C",
"$	c #8ACB25",
"%	c #81BE20",
"&	c #83BD22",
"*	c #82BD22",
"=	c #82BD23",
"-	c #81BD21",
";	c #82BD21",
">	c #85BC26",
",	c #80BE20",
"'	c #83BD23",
")	c #87BB28",
"!	c #85BC25",
"~	c #84BC25",
"                                                                ",
"................................................................",
"................................................................",
"................................................................",
"................................................................",
"...++.....++.....++.....++.....++.....++.....++.....++.....++...",
"..++++...++++...++++...++++...++++...++++...++++...++++...++++..",
".++@@++.++@@++.++@@++.++@@++.++@@++.++@@++.++@@++.++@@++.++@@++.",
"++@@@@+++@@@@+++@@@@+++@@@@+++@@@@+++@@@@+++@@@@+++@@@@+++@@@@++",
"+@@@@@@+@@@@@@+@@@@@@+@@@@@@+@@@@@@+@@@@@@+@@@@@@+@@@@@@+@@@@@@+",
"@@@@@@@@@@@@@@@@@@@@@@@@@@@@@@@@@@@@@@@@@@@@@@@@@@@@@@@@@@@@@@@@",
"@@@##@@@@@##@@@@@##@@@@@##@@@@@##@@@@@##@@@@@##@@@@@##@@@@@##@@@",
"@@####@@@####@@@####@@@####@@@####@@@####@@@####@@@####@@@####@@",
"@######@######@######@######@######@######@######@######@######@",
"###@@#####@@#####@@#####@@#####@@#####@@#####@@#####@@#####@@###",
"##@@@@###@@@@###@@@@###@@@@###@@@@###@@@@###@@@@###@@@@###@@@@##",
"#@@@@@@#@@@@@@#@@@@@@#@@@@@@#@@@@@@#@@@@@@#@@@@@@#@@@@@@#@@@@@@#",
"@@@@@@@@@@@@@@@@@@@@@@@@@@@@@@@@@@@@@@@@@@@@@@@@@@@@@@@@@@@@@@@@",
"@@@##@@@@@##@@@@@##@@@@@##@@@@@##@@@@@##@@@@@##@@@@@##@@@@@##@@@",
"@@####@@@####@@@####@@@####@@@####@@@####@@@####@@@####@@@####@@",
"@######@######@######@######@######@######@######@######@######@",
"###@@#####@@#####@@#####@@#####@@#####@@#####@@#####@@#####@@###",
"##@@@@###@@@@###@@@@###@@@@###@@@@###@@@@###@@@@###@@@@###@@@@##",
"#@@@@@@#@@@@@@#@@@@@@#@@@@@@#@@@@@@#@@@@@@#@@@@@@#@@@@@@#@@@@@@#",
"@@@@@@@@@@@@@@@@@@@@@@@@@@@@@@@@@@@@@@@@@@@@@@@@@@@@@@@@@@@@@@@@",
"@@@##@@@@@##@@@@@##@@@@@##@@@@@##@@@@@##@@@@@##@@@@@##@@@@@##@@@",
"@@####@@@####@@@####@@@####@@@####@@@####@@@####@@@####@@@####@@",
"@######@######@######@######@######@######@######@######@######@",
"###@@#####@@#####@@#####@@#####@@#####@@#####@@#####@@#####@@###",
"##@@@@###@@@@###@@@@###@@@@###@@@@###@@@@###@@@@###@@@@###@@@@##",
"#@@@@@@#@@@@@@#@@@@@@#@@@@@@#@@@@@@#@@@@@@#@@@@@@#@@@@@@#@@@@@@#",
"@@@@@@@@@@@@@@@@@@@@@@@@@@@@@@@@@@@@@@@@@@@@@@@@@@@@@@@@@@@@@@@@",
"@@@##@@@@@##@@@@@##@@@@@##@@@@@##@@@@@##@@@@@##@@@@@##@@@@@##@@@",
"@@####@@@####@@@####@@@####@@@####@@@####@@@####@@@####@@@####@@",
"@######@######@######@######@######@######@######@######@######@",
"###@@#####@@#####@@#####@@#####@@#####@@#####@@#####@@#####@@###",
"##@@@@###@@@@###@@@@###@@@@###@@@@###@@@@###@@@@###@@@@###@@@@##",
"#@@@@@@#@@@@@@#@@@@@@#@@@@@@#@@@@@@#@@@@@@#@@@@@@#@@@@@@#@@@@@@#",
"@@@@@@@@@@@@@@@@@@@@@@@@@@@@@@@@@@@@@@@@@@@@@@@@@@@@@@@@@@@@@@@@",
"@@@##@@@@@##@@@@@##@@@@@##@@@@@##@@@@@##@@@@@##@@@@@##@@@@@##@@@",
"@@####@@@####@@@####@@@####@@@####@@@####@@@####@@@####@@@####@@",
"@######@######@######@######@######@######@######@######@######@",
"###@@#####@@#####@@#####@@#####@@#####@@#####@@#####@@#####@@###",
"##@@@@###@@@@###@@@@###@@@@###@@@@###@@@@###@@@@###@@@@###@@@@##",
"#@@@@@@#@@@@@@#@@@@@@#@@@@@@#@@@@@@#@@@@@@#@@@@@@#@@@@@@#@@@@@@#",
"@@@@@@@@@@@@@@@@@@@@@@@@@@@@@@@@@@@@@@@@@@@@@@@@@@@@@@@@@@@@@@@@",
"@@@##@@@@@##@@@@@##@@@@@##@@@@@##@@@@@##@@@@@##@@@@@##@@@@@##@@@",
"@@####@@@####@@@####@@@####@@@####@@@####@@@####@@@####@@@####@@",
"@######@######@######@######@######@######@######@######@######@",
"@######@######@######@######@######@######@######@######@######@",
"###@@#####@@#####@@#####@@#####@@#####@@#####@@#####@@#####@@###",
"##@@@@###@@@@###@@@@###@@@@###@@@@###@@@@###@@@@###@@@@###@@@@##",
"#@@@@@@#@@@@@@#@@@@@@#@@@@@@#@@@@@@#@@@@@@#@@@@@@#@@@@@@#@@@@@@#",
"$@@@@@@@@@@@@@@@@@@@@@@@@@@@@@@@@@@$$@@@@@@@@@@@@@@@@@@@@@@@@@@$",
".$$##@@@@@##@@@@@##@@@@@##@@@@@##$$..@##@@@@@##@@@@@##@@@@@##@@.",
"...###@@@####@@@####@@@####@@@###...@####@@@####@@@####@@@####@@",
"...$###@######@######@######@###$...######@######@######@######@",
"#...@#####@@#####@@#####@@#####@...###@@#####@@#####@@#####@@###",
"#...$@###@@@@###@@@@###@@@@###@$...##@@@@###@@@@###@@@@###@@@@##",
"#....@$$$@@@@@#@@@@@@#@@@@@$$$@....#@@@@@@#@@@@@@#@@@@@@#@@@@@@#",
"@....$..@@@@@@@@@@@@@@@@@@@@..$....@$$$$@@@@@@@@@@@@@@@@@@@@$$$$",
"$......@@@##@@@@@##@@@@@##@@@......$...#@@@@@##@@@@@##@@@@@##...",
".......@@####@@@####@@@####@@.........###@@@####@@@####@@@####..",
".......%.%&*&&=-..%.;*-.->*%,..........*.....%'&)=-%%!%;*...;~.."};
